*******************************************************************************
                            Curandero (2005) WEBRip
*******************************************************************************

-------------------------------------------------------------------------------
                              General Information
-------------------------------------------------------------------------------
Type.................: Movie



Video Format.........: MKV
Video Bitrate........: 2191
Resolution...........: 640 x 360
Color................: 8 bit
FPS..................: 29.970
Source...............: WEB 16:9
Original Format......: NTSC
Genre................: Horror
IMDb Rating..........: 5.2
Movie Information....: http://www.imdb.com/title/tt0422037/

-------------------------------------------------------------------------------
                               Post Information
-------------------------------------------------------------------------------
Posted by............: RadioResearch
Posted on............: 3/21/2013

-------------------------------------------------------------------------------
                                 Release Notes
-------------------------------------------------------------------------------
SEEDBOX SUPPORTED!!

Spanish with hard-coded English subtitles.  From Director Eduardo Rodriguez and 
written by the famous Robert Rodriguez.

Robert Rodriguez (Sin City, Machete) presents Curandero: Dawn of the Demon,
an action-packed horror flick that takes a couple on a horrifying journey 
through the deepest bowels of the Mexican underworld. When beautiful federal 
agent Magdalena calls upon curandero Don Carlos (Carlos Gallardo El Mariachi,
Grindhouse) for his services to purify a police station, the two of them 
suddenly find themselves immersed in a satanic cult s blood-thirsty 
battleground.  

Enjoy!

RadioResearch

General
Complete name                            : G:Curandero (2005)Curandero.mkv
Format                                   : Matroska
Format version                           : Version 1
File size                                : 1.46 GiB
Duration                                 : 1h 35mn
Overall bit rate                         : 2 191 Kbps
Encoded date                             : UTC 2013-03-20 14:07:58
Writing library                          : WonderShare Matroska Muxer

Video
ID                                       : 1
Format                                   : AVC
Format/Info                              : Advanced Video Codec
Format profile                           : Baseline@L3.0
Format settings, CABAC                   : No
Format settings, ReFrames                : 1 frame
Format settings, GOP                     : M=1, N=25
Codec ID                                 : V_MPEG4/ISO/AVC
Duration                                 : 1h 35mn
Bit rate                                 : 2 019 Kbps
Width                                    : 640 pixels
Height                                   : 360 pixels
Display aspect ratio                     : 16:9
Frame rate mode                          : Variable
Frame rate                               : 29.970 fps
Original frame rate                      : 29.000 fps
Color space                              : YUV
Chroma subsampling                       : 4:2:0
Bit depth                                : 8 bits
Scan type                                : Progressive
Bits/(Pixel*Frame)                       : 0.292
Stream size                              : 1.35 GiB (92%)
Default                                  : Yes
Forced                                   : No

Audio
ID                                       : 2
Format                                   : AC-3
Format/Info                              : Audio Coding 3
Mode extension                           : CM (complete main)
Format settings, Endianness              : Big
Codec ID                                 : A_AC3
Duration                                 : 1h 35mn
Bit rate mode                            : Constant
Bit rate                                 : 128 Kbps
Channel(s)                               : 2 channels
Channel positions                        : Front: L R
Sampling rate                            : 44.1 KHz
Bit depth                                : 16 bits
Compression mode                         : Lossy
Stream size                              : 87.4 MiB (6%)
Default                                  : Yes
Forced                                   : No




-------------------------------------------------------------------------------
Generated with Cool NFO Creator - http://fly.to/coolbeans
-------------------------------------------------------------------------------
